<?xml version="1.0" encoding="utf-8"?>
<!-- Generator: Adobe Illustrator 18.1.0, SVG Export Plug-In . SVG Version: 6.00 Build 0)  -->
<!DOCTYPE svg PUBLIC "-//W3C//DTD SVG 1.1//EN" "http://www.w3.org/Graphics/SVG/1.1/DTD/svg11.dtd">
<svg version="1.1" id="Layer_1" xmlns="http://www.w3.org/2000/svg" xmlns:xlink="http://www.w3.org/1999/xlink" x="0px" y="0px"
	 viewBox="0 0 1000 1000" enable-background="new 0 0 1000 1000" xml:space="preserve">
<g id="outerSquare">
	<path fill="#D8D8D8" d="M859,859H141V141H859V859z M147.3,852.7h705.3V147.3H147.3V852.7z"/>
</g>
<linearGradient id="Colour_1_" gradientUnits="userSpaceOnUse" x1="156.1204" y1="500" x2="843.8806" y2="500">
	<stop  offset="0" style="stop-color:#A10000"/>
	<stop  offset="0.1308" style="stop-color:#9C0000"/>
	<stop  offset="0.2936" style="stop-color:#8C0000"/>
	<stop  offset="0.4735" style="stop-color:#730000"/>
	<stop  offset="0.6657" style="stop-color:#500000"/>
	<stop  offset="0.8654" style="stop-color:#230000"/>
	<stop  offset="1" style="stop-color:#000000"/>
</linearGradient>
<circle id="Colour" fill="url(#Colour_1_)" cx="500" cy="500" r="343.9"/>
<g>
	<path fill="#020202" d="M411.5,437.9c0,2.1-0.6,3.7-1.8,4.8c-1.2,1.1-2.6,1.7-4.2,1.7c-1.3,0-2.4-0.2-3.3-0.8
		c-0.5,0.9-0.9,1.9-1.3,2.9c-0.3,1-0.5,2.1-0.5,3.2c0,2.8,1.1,5.1,3.2,6.9s4.7,2.7,7.6,2.7c1.8,0,3.6-0.3,5.5-0.9
		c1.8-0.6,3.5-1.5,5-2.6c1.4-1.1,2.6-2.5,3.5-4.1c0.9-1.6,1.3-3.3,1.3-5.2c0-2.6-0.6-5-1.9-7.1c-1.3-2.1-2.6-4.2-4.1-6.2
		c-1.5-2-2.9-4-4.1-6.1c-0.3-0.5-0.6-1-0.8-1.5c-1.7,2.2-3.5,4.3-5.3,6.4c-0.3,0.4-0.7,0.8-1,1.1c0.1,0.1,0.3,0.2,0.4,0.4
		C410.9,434.7,411.5,436.2,411.5,437.9z"/>
	<path fill="#020202" d="M368.4,430.6c3.7-1.8,7-3.9,9.8-6.3c2.8-2.3,5.1-4.8,6.8-7.5c1.7-2.6,2.5-5.2,2.5-7.6c0-1.4-0.4-2.4-1.1-3
		c-0.8-0.6-1.7-0.9-2.9-0.9c-2.5,0-5.2,1-8.1,3.1c-2.9,2.1-5.6,4.7-8.2,7.7c-2.5,3.1-4.8,6.2-6.8,9.6c-2,3.4-3.2,6.3-3.8,8.8
		C360.8,433.8,364.7,432.5,368.4,430.6z"/>
	<path fill="#020202" d="M467,437.9c0,2.1-0.6,3.7-1.8,4.8c-1.2,1.1-2.6,1.7-4.2,1.7c-1.3,0-2.4-0.2-3.3-0.8
		c-0.5,0.9-0.9,1.9-1.3,2.9c-0.3,1-0.5,2.1-0.5,3.2c0,2.8,1.1,5.1,3.2,6.9s4.7,2.7,7.6,2.7c1.8,0,3.6-0.3,5.5-0.9
		c1.8-0.6,3.5-1.5,5-2.6c1.4-1.1,2.6-2.5,3.5-4.1c0.9-1.6,1.3-3.3,1.3-5.2c0-2.6-0.6-5-1.9-7.1c-1.3-2.1-2.6-4.2-4.1-6.2
		c-1.5-2-2.9-4-4.1-6.1c-0.3-0.5-0.6-1.1-0.8-1.6c-2,2.6-4.1,5.2-6.1,7.8c0.1,0.1,0.2,0.1,0.2,0.2C466.4,434.7,467,436.2,467,437.9z
		"/>
	<path fill="#020202" d="M500,5L5,500l495,495l495-495L500,5z M663.7,522.1c1.7-1.5,3.8-2.3,6.1-2.3c1.9,0,3.6,0.7,5,2.1
		c1.4,1.4,2.2,3.1,2.2,5c0,2-0.8,3.8-2.4,5.5c-1.6,1.7-3.4,2.5-5.4,2.5c-2.2,0-4.1-0.6-5.7-1.7c-1.6-1.1-2.4-2.9-2.4-5.2
		C661.1,525.6,662,523.7,663.7,522.1z M245.7,451.2c-4.9,3.2-10.3,5.7-16.2,7.4c-6,1.7-11.8,2.5-17.6,2.5c-10,0-17.8-2.9-23.2-8.5
		c-5.5-5.7-8.2-13.5-8.2-23.4c0-6.4,1.4-12.8,4-19.2c2.7-6.4,6.3-12.5,10.9-18.4c4.5-5.8,9.8-11.3,15.9-16.3c6-5,12.4-9.3,19.1-13.1
		c6.7-3.7,13.5-6.6,20.4-8.7c6.9-2.1,13.5-3.2,19.8-3.2c2.9,0,5.7,0.3,8.4,0.9c2.7,0.6,5.1,1.6,7.2,2.9c2.1,1.3,3.8,3.2,5,5.5
		c1.2,2.3,1.9,5.2,1.9,8.5c0,3.7-0.9,7-2.7,10c-1.8,3-4.1,5.4-7,7.4c-2.9,2-6,3.6-9.5,4.7c-3.5,1.1-6.9,1.6-10.2,1.6
		c-2.1,0-4.1-0.2-6.1-0.8c-1.9-0.5-3.7-1.3-5.2-2.3c-1.5-1-2.7-2.4-3.7-4c-1-1.6-1.4-3.6-1.4-5.9c0-1.4,0.2-2.8,0.6-4.2
		c0.4-1.4,0.8-2.4,1.2-3.1l1.5,0.4c-0.5,0.9-0.9,2-1.1,3.3c-0.3,1.3-0.4,2.5-0.4,3.6c0,3.2,1,5.7,3,7.6c2,1.9,4.5,2.8,7.7,2.8
		c3.2,0,6.3-0.8,9.2-2.4c2.9-1.6,5.5-3.7,7.8-6.2c2.2-2.5,4-5.4,5.3-8.5c1.3-3.1,2-6.3,2-9.4c0-2.2-0.5-4-1.4-5.3
		c-1-1.3-2.2-2.4-3.6-3.1c-1.5-0.8-3-1.3-4.5-1.6c-1.6-0.3-2.9-0.5-4.1-0.5c-5.2,0-10.6,1.2-16.3,3.5c-5.7,2.3-11.3,5.4-16.9,9.4
		c-5.5,4-10.8,8.6-15.8,13.9c-5,5.3-9.4,11-13.2,17.1c-3.8,6.1-6.8,12.4-9.1,18.9c-2.2,6.5-3.4,12.9-3.4,19.2
		c0,3.7,0.4,7.1,1.3,10.1c0.8,3.1,2.1,5.7,3.8,8c1.7,2.2,3.8,4,6.3,5.2c2.5,1.3,5.4,1.9,8.7,1.9c4.3,0,8.5-0.9,12.6-2.9
		c4.1-1.9,7.8-4.5,11-7.7c3.2-3.2,5.8-7,7.8-11.2c2-4.2,2.9-8.7,2.9-13.3c0-4.1-0.9-7.5-2.5-10.3c-1.7-2.8-4.8-4.2-9.2-4.2
		c-2.3,0-4.5,0.6-6.6,1.8s-4.1,2.7-6,4.4c-1.9,1.8-3.6,3.6-5.1,5.6c-1.5,1.9-2.8,3.7-3.9,5.3l-1.5-0.8c1.7-2.6,3.5-5.1,5.5-7.4
		c2-2.3,4.2-4.5,6.5-6.4c2.3-1.9,4.9-3.4,7.7-4.5c2.8-1.1,5.9-1.6,9.3-1.6c5.2,0,9.5,1.6,12.8,4.7c3.3,3.2,5,7.3,5,12.4
		c0,6.1-1.5,11.5-4.6,16.2C254.5,444.1,250.5,448,245.7,451.2z M304.2,457.1c-1.7-2.1-2.5-4.5-2.5-7.2c0-3.5,1.1-7,3.3-10.6
		c2.2-3.5,4.6-7,7.2-10.4c2.6-3.4,5-6.6,7.2-9.6c2.2-3,3.3-5.6,3.3-7.8c0-1.4-0.4-2.5-1.2-3.2c-0.8-0.8-1.7-1.1-2.7-1.1
		c-2.2,0-4.7,0.9-7.4,2.8c-2.8,1.9-5.7,4.3-8.7,7.2c-3.1,3-6.1,6.3-9.2,10c-3.1,3.8-6,7.5-8.7,11.2c-2.8,3.8-5.2,7.4-7.3,10.9
		c-2.2,3.5-3.9,6.5-5.2,9l-15.5,0.5l62.8-103.6l16.4-0.8l-49.8,78.6l0.3,0.3c2.2-2.6,4.7-5.6,7.4-9.1c2.7-3.4,5.7-6.7,9-9.8
		c3.2-3,6.7-5.6,10.3-7.7c3.6-2.1,7.3-3.2,11.2-3.2c3.2,0,5.7,0.8,7.5,2.5c1.8,1.6,2.7,4.1,2.7,7.4c0,2.7-1.1,5.9-3.3,9.5
		c-2.2,3.7-4.6,7.4-7.2,11.2c-2.6,3.8-5,7.5-7.2,11c-2.2,3.5-3.3,6.4-3.3,8.8s1.1,3.6,3.2,3.6c1.5,0,3.4-0.7,5.7-2.2
		c2.3-1.4,4.8-3.3,7.4-5.6c2.6-2.3,5.3-4.9,8.1-7.8c1.3-1.3,2.5-2.7,3.7-4c0.7-3.1,1.9-6.3,3.8-9.3c2.9-4.7,6.5-8.9,11-12.6
		c4.4-3.7,9.2-6.7,14.5-9c5.3-2.3,10.2-3.5,14.9-3.5c4.3,0,7.7,0.8,10.1,2.5c2.4,1.6,3.6,4,3.6,7c0,2.4-0.8,4.6-2.5,6.6
		c-1.7,2-3.8,3.8-6.4,5.4c-2.6,1.6-5.5,3-8.8,4.2c-3.2,1.2-6.5,2.2-9.7,3.2c-3.2,0.9-6.2,1.6-9,2.2c-2.8,0.6-5.1,1.1-6.9,1.5
		c-0.5,2-0.8,3.8-0.8,5.4c0,4.3,1.2,7.8,3.6,10.5c2.4,2.7,5.7,4,10,4c4.2,0,8.8-1.2,13.9-3.8c3.4-1.7,6.8-3.9,10.3-6.7
		c0-0.2,0-0.3,0-0.5c0-1.6,0.2-3.2,0.7-4.8c0.5-1.6,1.1-3,2-4.3c0.9-1.3,2-2.4,3.4-3.2c1.3-0.8,2.9-1.3,4.7-1.3
		c1.3,0,2.4,0.2,3.3,0.6c0.7-0.8,1.4-1.5,2.1-2.3c1.9-2.1,3.6-4.1,5.2-6.1c-0.3-1-0.4-2.1-0.4-3.2c0-2.8,0.6-5.2,2-7.3
		c1.3-2.1,3-3.9,5.1-5.3c2.1-1.4,4.4-2.5,7-3.2c2.6-0.7,5.2-1.1,8-1.1c4.8,0,8.8,1,12.1,3.1c3.2,2.1,4.9,5,4.9,8.8
		c0,2.9-1,5.3-2.8,7.1c-1.9,1.9-4.3,2.8-7.2,2.8c-0.9,0-1.7-0.1-2.5-0.2s-1.4-0.3-1.9-0.5c1.1-2,1.9-4,2.3-5.9s0.7-3.9,0.7-5.8
		c0-2-0.6-3.8-1.7-5.2c-1.2-1.5-2.9-2.2-5.2-2.2c-2.8,0-5,0.9-6.5,2.6c-1.5,1.8-2.2,3.9-2.2,6.5c0,2.8,0.6,5.3,1.9,7.4
		c1.2,2.2,2.6,4.2,4.1,6.2c1.5,2,2.9,4.1,4.1,6.3c1.2,2.2,1.9,4.8,1.9,7.8c0,1.9-0.3,3.8-1,5.5c-0.7,1.8-1.5,3.4-2.6,4.8
		c-1.1,1.4-2.3,2.6-3.6,3.5c-1.3,1-3.2,1.6-4.2,1.9v0.3c5-1.1,9.8-3,14.1-5.6c2.8-1.7,5.4-3.6,8-5.6c-0.1-0.6-0.1-1.3-0.1-1.9
		c0-1.6,0.2-3.2,0.7-4.8c0.5-1.6,1.1-3,2-4.3c0.9-1.3,2-2.4,3.4-3.2c1.3-0.8,2.9-1.3,4.7-1.3c1.5,0,2.8,0.3,3.9,0.9
		c0.1-0.2,0.3-0.3,0.4-0.5c2.2-2.7,4.3-5.4,6.4-8.1c-0.3-1.1-0.4-2.1-0.4-3.3c0-2.8,0.6-5.2,2-7.3c1.3-2.1,3-3.9,5.1-5.3
		c2.1-1.4,4.4-2.5,7-3.2c2.6-0.7,5.2-1.1,8-1.1c4.8,0,8.8,1,12.1,3.1c3.2,2.1,4.9,5,4.9,8.8c0,2.9-1,5.3-2.8,7.1
		c-1.9,1.9-4.3,2.8-7.2,2.8c-0.9,0-1.7-0.1-2.5-0.2s-1.4-0.3-1.9-0.5c1.1-2,1.9-4,2.3-5.9s0.7-3.9,0.7-5.8c0-2-0.6-3.8-1.7-5.2
		c-1.2-1.5-2.9-2.2-5.2-2.2c-2.8,0-5,0.9-6.5,2.6c-1.5,1.8-2.2,3.9-2.2,6.5c0,2.8,0.6,5.3,1.9,7.4c1.2,2.2,2.6,4.2,4.1,6.2
		c1.5,2,2.9,4.1,4.1,6.3c1.2,2.2,1.9,4.8,1.9,7.8c0,1.9-0.3,3.8-1,5.5c-0.7,1.8-1.5,3.4-2.6,4.8c-1.1,1.4-2.5,2.6-3.9,3.5
		c-1.3,1-2.5,1.6-4.5,1.9v0.3c6-1.1,10-3,14.4-5.6c4.3-2.6,8.5-5.7,12.3-9.3c3.8-3.5,7.4-7.4,10.8-11.5c3.3-4.1,6.7-8.3,9.9-12.5
		l1.2,0.9c-4,5.2-8,10.3-12,15.2c-4,5-8.4,9.3-13.1,13.1c-4.8,3.8-9.9,6.9-15.6,9.2c-5.7,2.3-12.1,3.5-19.4,3.5
		c-2.6,0-5.2-0.3-7.7-0.8c-2.5-0.6-4.8-1.5-6.9-2.7c-2-1.2-3.7-2.9-5-5c-0.7-1.1-1.1-2.3-1.5-3.7c-4.6,3.6-9.6,6.5-15,8.7
		c-5.7,2.3-12.1,3.5-19.4,3.5c-2.6,0-5.2-0.3-7.7-0.8c-2.5-0.6-4.8-1.5-6.9-2.7c-2-1.2-3.7-2.9-5-5c-0.8-1.3-1.4-2.9-1.6-4.6
		c-5.5,4.5-10.9,7.7-16.1,9.6c-6.4,2.3-12.3,3.5-17.9,3.5c-5.7,0-10.2-1.7-13.5-5.1c-3.3-3.4-4.9-7.8-4.9-13.2
		c0-0.8,0.1-1.5,0.1-2.3c-1.3,1.4-2.6,2.7-3.9,4.1c-5.4,5.6-10,9.6-13.8,12c-3.8,2.4-7.7,3.6-11.7,3.6
		C308.4,460.2,305.8,459.2,304.2,457.1z M460.8,538c-2.2,3.1-4.9,5.6-8.1,7.7c-3.2,2.1-6.8,3.7-10.6,4.8c-3.9,1.2-7.5,2-11,2.6
		l-0.1,0.3c3.1,0.4,6.1,0.9,9.1,1.4c2.9,0.6,5.6,1.5,8,2.8c2.3,1.3,4.2,3.1,5.6,5.5c1.4,2.3,2.1,5.5,2.1,9.4
		c0,5.5-1.2,10.5-3.5,14.9c-2.4,4.5-5.5,8.2-9.4,11.3s-8.3,5.5-13.2,7.1c-4.9,1.7-9.9,2.5-15,2.5c-2.1,0-4.3-0.3-6.5-0.8
		c-2.2-0.6-4.2-1.4-5.9-2.5c-1.8-1.1-3.2-2.5-4.3-4.2c-1.2-1.7-1.7-3.7-1.7-6c0-2.6,0.9-4.8,2.7-6.8c1.8-1.9,4-2.8,6.6-2.8
		c3,0,5.6,1,7.9,3c-2,1.2-3.5,2.7-4.4,4.5c-1,1.8-1.4,3.8-1.4,6c0,2.6,0.7,4.6,2.1,5.8c1.4,1.3,3.4,1.9,6,1.9
		c3.9,0,7.4-1.1,10.7-3.2c3.2-2.1,5.9-4.8,8.1-8.1c2.2-3.2,3.9-6.8,5.1-10.7s1.8-7.6,1.8-11.1c0-6.6-1.7-11.4-5.2-14.5
		c-3.5-3-8.8-4.6-16-4.6l0.2-1.2c3.7-0.2,7.3-0.9,11-2c3.6-1.1,6.8-2.8,9.7-5c2.8-2.1,5.2-4.8,7-8.1c1.8-3.2,2.7-7.1,2.7-11.6
		c0-2.8-0.5-5.5-1.5-8c-1-2.5-2.6-4.8-4.8-6.7c-5,4-9.5,9.2-13.5,15.4c-4,6.3-8,13-11.9,20.2c-4,7.2-8.1,14.3-12.4,21.6
		c-4.3,7.3-9.2,13.8-14.8,19.7s-12,10.6-19.3,14.2c-7.3,3.6-15.9,5.5-25.8,5.5c-3.2,0-6.3-0.4-9.4-1.3c-3.1-0.8-5.8-2.1-8.2-3.8
		c-2.4-1.7-4.3-3.7-5.8-6.1s-2.2-5.2-2.2-8.2c0-2.9,0.8-5.4,2.3-7.5c1.5-2.1,3.9-3.2,7.1-3.2c2.3,0,4.1,0.7,5.5,2.1
		c1.3,1.4,2,3.2,2,5.2c0,1.9-0.6,3.5-1.8,4.8c-1.2,1.3-2.4,2.1-3.6,2.2c-0.1,0.4-0.2,1-0.2,1.8c0,4.1,1.3,7.1,4,9.1
		c2.6,1.9,6.5,2.9,11.6,2.9c6.8,0,12.8-1.8,17.9-5.5c5.1-3.7,9.9-8.5,14.2-14.5c4.3-5.9,8.4-12.6,12.5-20c4-7.3,8.3-14.6,12.8-21.9
		c4.5-7.2,9.6-14.1,15.2-20.5c5.6-6.5,12.2-11.7,19.7-15.7c-4-3.1-8.6-5.4-13.8-6.8c-5.2-1.4-10.4-2.2-15.5-2.2
		c-7.1,0-14.5,1.3-22,3.7c-7.6,2.5-14.5,6.1-20.8,10.9c-6.3,4.8-11.4,10.5-15.4,17.2c-4,6.8-6,14.4-6,22.9c0,2.4,0.3,4.9,1,7.5
		c0.6,2.6,1.7,5,3.1,7.1c1.4,2.2,3.2,3.9,5.2,5.3c2.1,1.4,4.5,2.1,7.4,2.1c3.9,0,7.4-0.9,10.4-2.6c3-1.7,5.7-4.1,7.9-7.1
		c2.2-2.9,3.9-6.3,5-10.2c1.1-3.8,1.7-7.8,1.7-11.9c0-2.4-0.1-4.5-0.3-6.2c-0.2-1.7-0.4-3.4-0.6-5l1.7-0.1c0.2,1.2,0.4,2.8,0.7,4.7
		c0.2,1.9,0.4,4,0.4,6.1c0,4.6-0.7,9-2,13.3c-1.3,4.3-3.3,8-5.9,11.2c-2.7,3.2-5.9,5.8-9.8,7.7c-3.9,1.9-8.5,2.8-13.6,2.8
		c-3.8,0-7.2-0.6-10.2-1.9c-3-1.2-5.5-3-7.6-5.2c-2.1-2.2-3.6-4.9-4.7-8c-1.1-3.1-1.7-6.5-1.7-10.2c0-5.5,1.1-10.7,3.5-15.6
		c2.3-4.9,5.4-9.4,9.3-13.5c3.9-4.1,8.4-7.8,13.6-11.2c5.1-3.3,10.6-6.2,16.3-8.5c5.7-2.3,11.5-4.1,17.5-5.3
		c5.9-1.2,11.6-1.9,17-1.9c6.7,0,12.9,0.6,18.8,1.8c5.8,1.2,11.5,3,17.1,5.2c3.9-1.7,7.9-3.2,11.9-4.6c4-1.4,8.2-2.2,12.5-2.4
		l0.3,0.9c-1.4,0-3.1,0.3-5.1,0.8c-2,0.5-4,1.2-6.1,2c-2.1,0.8-4,1.7-5.8,2.6c-1.8,1-3.2,1.9-4,2.8c3.8,2.2,6.8,5,9.2,8.5
		c2.3,3.4,3.4,7.4,3.4,11.9C464,531.3,462.9,535,460.8,538z M807.2,593.6c-4.5,4-9.3,7.5-14.4,10.6c-5.1,3-10.5,5.4-16.2,7
		c-3.6,6.2-7.7,11.8-12.2,17c-4.6,5.1-9.5,9.4-14.9,13c-5.4,3.6-11.2,6.4-17.5,8.4c-6.3,2-13,3-20.2,3c-3.7,0-7.2-0.3-10.5-1
		c-3.3-0.7-6.2-1.8-8.8-3.3c-2.5-1.6-4.6-3.6-6.1-6c-1.5-2.5-2.2-5.5-2.2-9.1c0-2.7,0.6-5.1,1.7-7.3c1.2-2.2,2.7-4,4.6-5.4
		c1.9-1.5,4.1-2.5,6.5-3.3c2.5-0.8,4.9-1.1,7.4-1.1c0.9,0,2.5,0.1,4.3,0.3c1.8,0.2,3.4,0.3,4.4,0.5v1c-6,0.1-9.5,1.5-12.1,4.3
		c-2.6,2.8-4.1,6.7-4.1,11.7c0,2.4,0.3,4.6,1.1,6.7c0.8,2,1.9,3.8,3.3,5.3c1.5,1.5,3.2,2.7,5.2,3.5c2.1,0.8,4.4,1.3,7,1.3
		c4.7,0,9.1-1,13.3-2.8c4.2-1.9,8.2-4.5,11.9-7.7c3.8-3.2,7.3-6.8,10.6-10.9c3.3-4,6.5-8.2,9.4-12.4c2.9-4.3,5.7-8.5,8.3-12.7
		c2.6-4.2,5-7.9,7.3-11.2l-0.3-0.3c-1.6,1.9-3.4,3.7-5.3,5.5c-1.9,1.8-4,3.3-6.1,4.7c-2.2,1.3-4.5,2.5-6.9,3.3
		c-2.5,0.8-5,1.3-7.7,1.3c-4.1,0-7.2-1.4-9.4-4.3c-2.2-2.8-3.2-6.2-3.2-10c0-2,0.2-3.9,0.6-5.9c-1.5,1.7-3.1,3.4-4.7,5
		c-5.2,5.5-9.6,9.4-13.3,11.7c-3.7,2.3-7.4,3.4-11.3,3.4c-3.8,0-6.6-1-8.4-3.2c-1.8-2.1-2.7-4.5-2.7-7.2c0-3.4,1.1-6.9,3.2-10.5
		c2.1-3.6,4.5-7.1,7.1-10.6c2.6-3.5,5-6.7,7.1-9.8c2.1-3.1,3.2-5.8,3.2-8.1c0-1.1-0.4-2-1-2.7c-0.7-0.7-1.8-1.1-3.2-1.1
		c-2,0-4.3,0.9-7,2.8c-2.7,1.9-5.5,4.3-8.5,7.2c-3,3-6.1,6.3-9.2,10.1c-3.1,3.8-6,7.5-8.8,11.2c-2.8,3.8-5.2,7.4-7.4,10.9
		c-2.2,3.5-4,6.5-5.2,9l-15.1,0.4c3.1-5.1,6.2-10.2,9.3-15.3c-0.4,0.4-0.8,0.8-1.2,1.2c-5.8,5.8-10.8,9.9-14.9,12.2
		c-4.2,2.3-8,3.4-11.5,3.4c-3.3,0-5.9-0.9-7.7-2.7c-1.8-1.8-2.7-4.1-2.7-7.1c0-2,0.4-4.1,1.1-6.2c0.6-1.6,1.4-3.6,2.6-5.8
		c-2.9,3-5.9,5.8-9.1,8.5c-4.9,4.1-10,7.4-15.4,10.1c-5.5,2.7-11,4.1-16.7,4.1c-4.6,0-8.2-1.2-10.9-3.7c-2.7-2.4-4.2-5.6-4.6-9.5
		c-1.9,1.6-4,3.1-6.1,4.6c-2.2,1.5-4.5,2.8-7,3.9c-2.5,1.1-5,2-7.6,2.7c-2.7,0.7-5.4,1-8.2,1c-5.4,0-9.5-1.2-12.4-3.4
		c-2.9-2.3-4.3-5.4-4.3-9.5c0-2.4,0.8-4.6,2.2-6.7c1.5-2,3.8-3.1,6.8-3.1c2,0,3.6,0.6,5,1.8c1.3,1.2,2,2.8,2,4.8s-0.7,3.7-2,4.9
		c-1.3,1.3-2.9,1.9-4.6,1.9c0,2.3,0.7,4.1,2.1,5.4c1.4,1.3,3.2,2,5.5,2c4.2,0,8.4-1.5,12.7-4.4c4.2-2.9,8.1-6.5,11.5-10.8
		c3.4-4.2,6.2-8.8,8.2-13.6c2.1-4.8,3.2-9.2,3.2-13.1c0-2.5-0.6-4.6-1.7-6.2c-1.1-1.6-3-2.5-5.7-2.5c-1.6,0-3.2,0.4-4.8,1.2
		c-1.6,0.8-3.1,1.8-4.5,3c-1.4,1.2-2.7,2.5-3.9,4c-1.1,1.3-2,2.5-2.8,3.6l0.2,0.3c-2,2.6-4.4,4.9-7.1,7.1c-2.8,2.1-5.8,3.1-9.1,3.1
		c-2.3,0-4.3-0.5-6-1.5c-1.7-1-3.2-2.4-4.6-4.2c-1.2,5-3.2,9.7-5.9,14.2c-2.8,4.4-6.1,8.3-10,11.7c-3.9,3.4-8.2,6-13,7.9
		c-4.8,2-9.8,2.9-15,2.9c-5.5,0-9.9-1.6-13.2-4.7s-5-7.5-5-13c0-5.3,1.4-10.4,4.1-15.2c2.7-4.8,6.2-9.1,10.5-12.8
		c4.3-3.6,9-6.5,14.2-8.7c5.2-2.1,10.3-3.2,15.3-3.2c5.4,0,9.6,1.5,12.8,4.3c3.1,2.9,5,6.4,5.7,10.5c0.5,3,1.6,5.4,3.4,7.2
		c1.7,1.8,4,2.7,6.8,2.7c2.7,0,5.2-0.8,7.7-2.4c2.2-1.5,4.6-3.6,7-6.5l-0.1-0.1c1.3-1.8,2.7-3.6,4.3-5.5c1.5-1.8,3.2-3.5,5.1-5.1
		c1.8-1.5,3.9-2.8,6.2-3.8c2.2-0.9,4.7-1.4,7.3-1.4c4.2,0,7.5,1.2,10,3.6c2.5,2.4,4.1,5.5,5,9.3c3.4-3.3,7.2-6.2,11.5-8.6
		c4.3-2.4,8.9-3.7,13.8-3.7c1.6,0,3.2,0.2,4.9,0.4c1.7,0.3,3.2,0.9,4.7,1.7c1.4,0.8,2.5,1.8,3.5,3.1c0.9,1.2,1.3,2.9,1.3,4.9
		c0,3.1-1.2,5.4-3.7,7c-2.5,1.6-5,2.3-7.7,2.3c-1.1,0-2.1-0.2-3-0.4c0.5-1.7,0.9-3.3,1.3-4.9c0.3-1.5,0.5-3.4,0.5-5.5
		c0-2.1-0.4-3.8-1.3-5c-0.9-1.2-2.1-1.8-3.8-1.8c-2.6,0-5.5,1.2-8.8,3.4c-3.3,2.3-6.4,5.2-9.3,8.8c-2.9,3.6-5.4,7.7-7.4,12.2
		c-2,4.6-3,9.1-3,13.6c0,3.9,1.1,6.8,3.3,8.6c2.2,1.9,5.1,2.8,8.7,2.8c4,0,8.2-1.3,12.7-4c4.4-2.6,8.7-5.9,12.9-9.7
		c3-2.8,5.9-5.6,8.6-8.6c1.5-2.6,3.3-5.6,5.5-8.9c3-4.8,6.8-10.6,11.2-17.6l15.5-0.8c-4.7,7.4-8.8,13.7-12.2,19
		c-3.4,5.2-6.2,9.7-8.3,13.4c-2.2,3.7-3.8,6.7-4.8,9.1s-1.6,4.3-1.6,5.8c0,1.2,0.2,2.2,0.7,2.9c0.4,0.8,1.1,1.1,2,1.1
		c2,0,4.8-1.1,8.5-3.4c3.6-2.3,8.2-6.2,13.7-11.8c1.9-2,3.8-4,5.6-5.9c0.7-1.1,1.4-2.3,2.1-3.4c5.3-8.6,10.6-17.5,15.8-26.6
		l17.1-0.6l-19.5,27.3l0.3,0.3c1.4-1.8,3.4-4.4,6.1-7.7c2.6-3.3,5.7-6.5,9.1-9.8c3.4-3.2,7-6,11-8.4c3.9-2.4,7.8-3.6,11.7-3.6
		c3.3,0,5.8,0.9,7.5,2.8c1.7,1.9,2.5,4.1,2.5,6.8c0,3.4-1.1,6.9-3.2,10.4c-2.2,3.6-4.5,7.1-7.1,10.6c-2.6,3.6-5,7-7.1,10.2
		c-2.2,3.2-3.2,6.3-3.2,9.1c0,1.2,0.3,2.2,0.9,2.9c0.6,0.8,1.6,1.1,3,1.1c1.4,0,3.7-1.1,7-3.2c3.2-2.2,7.6-6.1,13.1-11.9
		c1.8-1.9,3.5-3.8,5.2-5.7c0.6-1.8,1.3-3.7,2.3-5.6c2.5-5,5.8-9.6,9.8-13.7c4-4.1,8.5-7.4,13.5-10c5-2.6,9.9-3.9,14.9-3.9
		c3.8,0,6.8,0.7,9,2.1c2.2,1.4,3.9,4,5.1,7.7l3.5-6.5l15.3-0.9c-5.4,9.2-10.7,18.5-15.9,27.9c-5.2,9.4-10.7,18.8-16.5,28.1
		c5.6-1.6,10.8-3.9,15.7-6.9c4.8-3,9.4-6.4,13.6-10.3c4.2-3.8,8.2-8,12-12.4c3.8-4.4,7.3-8.9,10.7-13.4l0.9,0.5
		c-3.3,4.8-6.9,9.5-10.9,14.2C815.9,585.3,811.7,589.6,807.2,593.6z"/>
	<path fill="#020202" d="M507.5,552.5c-2.5,0-5,0.9-7.5,2.6c-2.5,1.7-4.9,3.9-7.2,6.6c-2.3,2.7-4.4,5.8-6.4,9.2
		c-2,3.4-3.7,6.8-5.1,10.2c-1.5,3.4-2.6,6.7-3.4,9.8c-0.8,3.1-1.2,5.7-1.2,7.8c0,2.5,0.5,4.5,1.6,5.8c1,1.4,2.7,2.1,5,2.1
		c2.5,0,5-0.8,7.5-2.5c2.5-1.7,4.9-3.9,7.2-6.6c2.3-2.7,4.4-5.8,6.4-9.2c2-3.4,3.6-6.8,5.1-10.2c1.4-3.4,2.6-6.6,3.4-9.8
		c0.8-3.1,1.2-5.7,1.2-7.8c0-2.5-0.5-4.4-1.6-5.8C511.5,553.2,509.8,552.5,507.5,552.5z"/>
	<path fill="#020202" d="M785.2,568.6c0.8-2.7,1.2-5.1,1.2-7c0-1.1-0.1-2.2-0.2-3.2c-0.1-1.1-0.4-2-0.8-2.9c-0.4-0.9-1-1.6-1.8-2.2
		c-0.8-0.5-1.9-0.8-3.3-0.8c-3.7,0-7.3,1.4-11,4.3c-3.6,2.8-6.8,6.4-9.7,10.5c-2.8,4.2-5.2,8.5-7,13s-2.7,8.4-2.7,11.7
		c0,2.9,0.5,5.3,1.5,7.3c1,2,3.2,3,6.6,3c2.1,0,4.2-0.8,6.5-2.2c2.2-1.5,4.4-3.4,6.5-5.8c2.1-2.3,4.1-5,6-8c1.9-3,3.5-6,5-9
		C783.3,574.3,784.4,571.4,785.2,568.6z"/>
</g>
</svg>
