<?xml version="1.0" encoding="utf-8"?>
<!-- Generator: Adobe Illustrator 18.1.0, SVG Export Plug-In . SVG Version: 6.00 Build 0)  -->
<!DOCTYPE svg PUBLIC "-//W3C//DTD SVG 1.1//EN" "http://www.w3.org/Graphics/SVG/1.1/DTD/svg11.dtd">
<svg version="1.1" id="HEADERBOXING" xmlns="http://www.w3.org/2000/svg" xmlns:xlink="http://www.w3.org/1999/xlink" x="0px"
	 y="0px" viewBox="0 0 2000 200" enable-background="new 0 0 2000 200" xml:space="preserve">
<linearGradient id="BACKGROUND_1_" gradientUnits="userSpaceOnUse" x1="1000" y1="200" x2="1000" y2="-4.489630e-08">
	<stop  offset="0" style="stop-color:#AAAAAA;stop-opacity:0"/>
	<stop  offset="9.703302e-02" style="stop-color:#A18989;stop-opacity:9.703302e-02"/>
	<stop  offset="0.2398" style="stop-color:#966060;stop-opacity:0.2398"/>
	<stop  offset="0.3858" style="stop-color:#8C3D3D;stop-opacity:0.3858"/>
	<stop  offset="0.5335" style="stop-color:#852222;stop-opacity:0.5335"/>
	<stop  offset="0.6834" style="stop-color:#800F0F;stop-opacity:0.6834"/>
	<stop  offset="0.8371" style="stop-color:#7D0404;stop-opacity:0.8371"/>
	<stop  offset="1" style="stop-color:#7C0000"/>
</linearGradient>
<rect id="BACKGROUND" fill="url(#BACKGROUND_1_)" width="2000" height="200"/>
<path id="RIGHTTITLE" fill="#1E1E1E" d="M1838.8,25.2c7.5,0,14.8,0,22.5,0c0,3.9,0,7.7,0,11.6c7,0,13.7,0,20.6,0c0-3.8,0-7.7,0-11.6
	c9.4,0,18.5,0,27.8,0c0,3.8,0,7.6,0,11.6c6.9,0,13.7,0,20.6,0c0-3.8,0-7.6,0-11.5c7.6,0,15,0,22.6,0c0,0.5,0.1,1,0.1,1.5
	c0,7.8,0,15.6,0,23.4c0,1.2-0.4,1.9-1.3,2.6c-5.7,4.2-11.3,8.5-16.9,12.8c-0.7,0.5-1.2,1.6-1.2,2.4c-0.1,18.7-0.1,37.5,0,56.2
	c0,0.9,0.5,2.1,1.2,2.8c4.2,4.6,8.3,9.2,12.8,13.5c2.1,2.1,3,4.2,2.8,7.2c-0.3,4.1-0.1,8.3-0.1,12.6c3.3,0,6.4,0,9.8,0
	c0,5,0,9.7,0,14.6c-42.7,0-85.5,0-128.3,0c0-4.8,0-9.5,0-14.4c3.2,0,6.4,0,9.8,0c0-2,0-3.8,0-5.5c0-1.2,0.2-2.4,0-3.6
	c-1-5.8,1.2-10.1,5.5-13.9c3.7-3.2,6.9-7.1,10.2-10.7c0.6-0.7,1-1.7,1-2.6c0.1-18.7,0.1-37.3,0-56c0-0.9-0.6-2-1.3-2.6
	c-5.5-4.3-11.1-8.5-16.7-12.7c-0.7-0.5-1.3-1.6-1.4-2.4c-0.1-8-0.1-16-0.1-24C1838.7,26,1838.8,25.7,1838.8,25.2z M1896,54.4
	c16.9,0,33.8,0,50.8,0c2,0,3.8-1.3,3.8-2.9c0.1-1.6-1.7-3.1-3.7-3.1c-34,0-68.1,0-102.1,0c-2,0-3.7,1.4-3.7,3c0,1.6,1.7,3,3.8,3
	C1861.9,54.4,1879,54.4,1896,54.4z M1895.9,146.1C1895.9,146.1,1895.9,146.1,1895.9,146.1c16.2,0,32.4,0,48.6,0
	c2.1,0,3.1-0.9,3.1-2.5c0-1.7-1.1-2.7-3.2-2.8c-1.7-0.1-3.5-0.2-5.2-0.2c-24.2,0-48.4-0.1-72.6-0.1c-6.4,0-12.8,0.2-19.2,0.3
	c-2.3,0-3.4,1.1-3.3,2.8c0.1,1.7,1.1,2.5,3.4,2.5C1863.6,146.1,1879.7,146.1,1895.9,146.1z M1895.9,162.8c0,0.1,0,0.2,0,0.2
	c10,0,20,0,30,0c6.3,0,12.7-0.2,19-0.3c1.7,0,2.7-0.9,2.7-2.5c0-1.6-0.8-2.6-2.5-2.7c-1.1-0.1-2.3-0.2-3.4-0.2c-30.5,0-61,0-91.6,0
	c-1.2,0-2.4,0.1-3.6,0.3c-1.6,0.1-2.4,1.2-2.3,2.7c0,1.4,0.8,2.4,2.3,2.5c0.7,0,1.5,0.1,2.2,0.1
	C1864.4,162.8,1880.1,162.8,1895.9,162.8z M1896,63.5c-10.5,0-20.9,0-31.4,0c-2,0-3.5,1.2-3.6,2.9c-0.1,1.7,1.5,3.1,3.6,3.1
	c20.8,0,41.6,0,62.4,0c2.1,0,3.7-1.3,3.7-3c0-1.7-1.6-2.9-3.7-2.9C1916.7,63.5,1906.3,63.5,1896,63.5z M1895.7,128.5
	c10.5,0,20.9,0,31.4,0c2,0,3.5-1.2,3.6-2.9c0-1.7-1.6-3-3.7-3c-20.8,0-41.6,0-62.3,0c-2.1,0-3.7,1.3-3.7,3c0,1.7,1.6,2.9,3.8,2.9
	C1875.1,128.6,1885.4,128.5,1895.7,128.5z"/>
<path id="LEFTTITLE" fill="#1E1E1E" d="M47.2,25.2c7.5,0,14.8,0,22.5,0c0,3.9,0,7.7,0,11.6c7,0,13.7,0,20.6,0c0-3.8,0-7.7,0-11.6
	c9.4,0,18.5,0,27.8,0c0,3.8,0,7.6,0,11.6c6.9,0,13.7,0,20.6,0c0-3.8,0-7.6,0-11.5c7.6,0,15,0,22.6,0c0,0.5,0.1,1,0.1,1.5
	c0,7.8,0,15.6,0,23.4c0,1.2-0.4,1.9-1.3,2.6c-5.7,4.2-11.3,8.5-16.9,12.8c-0.7,0.5-1.2,1.6-1.2,2.4c-0.1,18.7-0.1,37.5,0,56.2
	c0,0.9,0.5,2.1,1.2,2.8c4.2,4.6,8.3,9.2,12.8,13.5c2.1,2.1,3,4.2,2.8,7.2c-0.3,4.1-0.1,8.3-0.1,12.6c3.3,0,6.4,0,9.8,0
	c0,5,0,9.7,0,14.6c-42.7,0-85.5,0-128.3,0c0-4.8,0-9.5,0-14.4c3.2,0,6.4,0,9.8,0c0-2,0-3.8,0-5.5c0-1.2,0.2-2.4,0-3.6
	c-1-5.8,1.2-10.1,5.5-13.9c3.7-3.2,6.9-7.1,10.2-10.7c0.6-0.7,1-1.7,1-2.6c0.1-18.7,0.1-37.3,0-56c0-0.9-0.6-2-1.3-2.6
	c-5.5-4.3-11.1-8.5-16.7-12.7c-0.7-0.5-1.3-1.6-1.4-2.4c-0.1-8-0.1-16-0.1-24C47.1,26,47.1,25.7,47.2,25.2z M104.4,54.4
	c16.9,0,33.8,0,50.8,0c2,0,3.8-1.3,3.8-2.9c0.1-1.6-1.7-3.1-3.7-3.1c-34,0-68.1,0-102.1,0c-2,0-3.7,1.4-3.7,3c0,1.6,1.7,3,3.8,3
	C70.3,54.4,87.3,54.4,104.4,54.4z M104.2,146.1C104.2,146.1,104.2,146.1,104.2,146.1c16.2,0,32.4,0,48.6,0c2.1,0,3.1-0.9,3.1-2.5
	c0-1.7-1.1-2.7-3.2-2.8c-1.7-0.1-3.5-0.2-5.2-0.2c-24.2,0-48.4-0.1-72.6-0.1c-6.4,0-12.8,0.2-19.2,0.3c-2.3,0-3.4,1.1-3.3,2.8
	c0.1,1.7,1.1,2.5,3.4,2.5C72,146.1,88.1,146.1,104.2,146.1z M104.2,162.8c0,0.1,0,0.2,0,0.2c10,0,20,0,30,0c6.3,0,12.7-0.2,19-0.3
	c1.7,0,2.7-0.9,2.7-2.5c0-1.6-0.8-2.6-2.5-2.7c-1.1-0.1-2.3-0.2-3.4-0.2c-30.5,0-61,0-91.6,0c-1.2,0-2.4,0.1-3.6,0.3
	c-1.6,0.1-2.4,1.2-2.3,2.7c0,1.4,0.8,2.4,2.3,2.5c0.7,0,1.5,0.1,2.2,0.1C72.8,162.8,88.5,162.8,104.2,162.8z M104.3,63.5
	c-10.5,0-20.9,0-31.4,0c-2,0-3.5,1.2-3.6,2.9c-0.1,1.7,1.5,3.1,3.6,3.1c20.8,0,41.6,0,62.4,0c2.1,0,3.7-1.3,3.7-3
	c0-1.7-1.6-2.9-3.7-2.9C125,63.5,114.7,63.5,104.3,63.5z M104.1,128.5c10.5,0,20.9,0,31.4,0c2,0,3.5-1.2,3.6-2.9c0-1.7-1.6-3-3.7-3
	c-20.8,0-41.6,0-62.3,0c-2.1,0-3.7,1.3-3.7,3c0,1.7,1.6,2.9,3.8,2.9C83.4,128.6,93.8,128.5,104.1,128.5z"/>
<g id="CENTRE">
	<path fill="#1E1E1E" d="M1065.3,77.5c-6.3-1.8-11.1-1-14.4,4.6c-0.8,1.3-2.2,2.2-3.3,3.4c-4.1,4.1-9.6,2.7-13.1,0.7
		c-4.1-2.3-0.8-6.7,0.9-10c3.1-6.2,4.6-14.5,9.6-18.1c6.3-4.7,7.6-14.8,19.9-14.6c7.6,0.1,15.2-2.2,21.8,2.6
		c9.3,6.8,15,16.3,16.7,27.7c1.9,12.7,0.2,25.2-4.7,37.2c-1.3,3.1-2.2,5.8-7.1,6c-6.3,0.4-4.3,5.7-4.1,11.3
		c0.4,12.1,12.8,13.4,15.9,21.4c3,7.7,7.3,16.5,4.2,24.9c-2.8,7.6-11.2,8.8-18.4,9.9c-15.7,2.3-31.6,2.7-47.1-1.3
		c-13.1-3.3-11.7-7.1-11.5-19.9c0.1-11.5,7.3-14.3,12.6-20.3c4.9-5.6,2-11.5-1.1-15.9c-3.8-5.3-3.2-9.8-1-15
		c3.7-8.6,9.8-15.4,16.2-22.1C1060.6,86.3,1064.5,82.9,1065.3,77.5z"/>
	<path fill="#1E1E1E" d="M940.4,52c3.1,3.1,3.3,8.2,7.6,11.1c1.8-4.4,3.2-8.8,5.4-12.8c2.5-4.6,5-10.6,12.2-6
		c6.6,4.3,9.4,13.2,4.9,18c-8.1,8.7-13.2,19.2-19.8,28.7c-4.6,6.7-4.4,12.8-2.5,19.6c2.6,9.2,8.4,17.5,6.3,28
		c-0.8,4.1,5.1,5.9,7.7,8.9c3.4,3.8,10.7,6,5.8,13.6c-0.4,0.6,0.7,2.2,1.3,3.3c4.3,8.1,3.5,12.9-5.2,16c-21.5,7.8-43.4,7.7-65,0.2
		c-6.7-2.3-9-7.4-7.2-14.4c2.7-10.3,3.6-21,15.5-26.7c6.1-2.9,2.5-11.6,4-17.5c0.9-3.8-0.9-8.5,1.3-12c7.7-12.1,4.9-24.1,0.8-36.2
		c-2.9-8.5-0.1-16.2,2.8-23.9c1.2-3.2,3.4-6.2,7.8-5.7c1.2-0.8,2.4-0.8,3.7-0.2c2.3,2,4.8,3.3,7.8,3.8
		C937.7,48.6,938.4,50.9,940.4,52z"/>
	<path fill="#1E1E1E" d="M940.4,52c-2-0.6-4-1.2-6-1.8c-2.2-2-5.3-1.9-7.5-3.7c-0.9-0.8-1.8-1.6-2.7-2.4c3.1-6.1,6.1-12.1,7-19.3
		c1-8.5,7.6-12.7,14.5-10.8c7.9,2.2,13.5,10.3,11.7,17.2c-2.1,8.3-4,16.7-15.3,16.7C940.5,48,940.5,50.4,940.4,52z"/>
	<path fill="#1E1E1E" d="M926.8,46.5c3.1-0.1,6.3-0.2,7.5,3.7C931,50.6,928.2,50,926.8,46.5z"/>
	<path fill="#1E1E1E" d="M932.6,70.3c-0.6-0.5-1.6-1.2-2.5-1.9c0.7-0.3,1.4-1,2.1-0.9c0.8,0.1,1.8,0.6,2.2,1.3
		C935,69.9,934.2,70.3,932.6,70.3z"/>
</g>
<g id="CHESS">
	<path fill="#1E1E1E" d="M391.6,141.9c0.7,2.6-0.8,5.2-3.3,6.1c-6,2-15,3.6-25.8,3.6c-32.3,0-56.6-20.4-56.6-58
		c0-35.9,24.3-60.2,59.8-60.2c10.3,0,17.8,1.6,22.7,3.2c2.6,0.9,4,3.6,3.2,6.2l-0.7,2.4c-0.8,2.7-3.7,4.3-6.4,3.4
		c-5-1.7-11.2-2.8-18.3-2.8c-26.9,0-44.7,17.2-44.7,47.3c0,28,16.1,46.1,44,46.1c6.8,0,13.6-1.1,19.2-2.8c2.8-0.9,5.7,0.7,6.4,3.5
		L391.6,141.9z"/>
	<path fill="#1E1E1E" d="M426,40.4v37.8c0,2.8,2.3,5.1,5.1,5.1h45.3c2.8,0,5.1-2.3,5.1-5.1V40.4c0-2.8,2.3-5.1,5.1-5.1h4.8
		c2.8,0,5.1,2.3,5.1,5.1v104.4c0,2.8-2.3,5.1-5.1,5.1h-4.8c-2.8,0-5.1-2.3-5.1-5.1v-43.6c0-2.8-2.3-5.1-5.1-5.1h-45.3
		c-2.8,0-5.1,2.3-5.1,5.1v43.6c0,2.8-2.3,5.1-5.1,5.1h-4.7c-2.8,0-5.1-2.3-5.1-5.1V40.4c0-2.8,2.3-5.1,5.1-5.1h4.7
		C423.7,35.3,426,37.6,426,40.4z"/>
	<path fill="#1E1E1E" d="M576.3,96.2h-34.4c-2.8,0-5.1,2.3-5.1,5.1v31.2c0,2.8,2.3,5.1,5.1,5.1h39.5c2.8,0,5.1,2.3,5.1,5.1v2.3
		c0,2.8-2.3,5.1-5.1,5.1h-54.3c-2.8,0-5.1-2.3-5.1-5.1V40.4c0-2.8,2.3-5.1,5.1-5.1h51.7c2.8,0,5.1,2.3,5.1,5.1v2.3
		c0,2.8-2.3,5.1-5.1,5.1h-37c-2.8,0-5.1,2.3-5.1,5.1v26.1c0,2.8,2.3,5.1,5.1,5.1h34.4c2.8,0,5.1,2.3,5.1,5.1v2.1
		C581.4,93.9,579.1,96.2,576.3,96.2z"/>
	<path fill="#1E1E1E" d="M601.9,137.8c0.9-2.9,4.1-4.4,6.9-3.2c6.1,2.8,13.6,4.8,21.4,4.8c15.1,0,24-8,24-19.5
		c0-10.7-6.1-16.8-21.6-22.8c-18.7-6.6-30.3-16.3-30.3-32.5c0-17.9,14.8-31.1,37.1-31.1c8.8,0,15.8,1.5,20.9,3.5
		c2.5,1,3.8,3.8,3,6.3l-0.8,2.5c-0.9,2.8-4,4.1-6.7,3.1c-4.2-1.6-9.9-3.2-16.9-3.2c-15.6,0-21.6,9.4-21.6,17.2
		c0,10.7,7,16,22.8,22.1c19.4,7.5,29.2,16.8,29.2,33.7c0,17.7-13.1,33-40.1,33c-9,0-18.7-2.2-25.3-5.2c-2.3-1.1-3.5-3.6-2.8-6.1
		L601.9,137.8z"/>
	<path fill="#1E1E1E" d="M685.7,137.8c0.9-2.9,4.1-4.4,6.9-3.2c6.1,2.8,13.6,4.8,21.4,4.8c15.1,0,24-8,24-19.5
		c0-10.7-6.1-16.8-21.6-22.8c-18.7-6.6-30.3-16.3-30.3-32.5c0-17.9,14.8-31.1,37.1-31.1c8.8,0,15.8,1.5,20.9,3.5
		c2.5,1,3.8,3.8,3,6.3l-0.8,2.5c-0.9,2.8-4,4.1-6.7,3.1c-4.2-1.6-9.9-3.2-16.9-3.2c-15.6,0-21.6,9.4-21.6,17.2
		c0,10.7,7,16,22.8,22.1c19.4,7.5,29.2,16.8,29.2,33.7c0,17.7-13.1,33-40.1,33c-9,0-18.7-2.2-25.3-5.2c-2.3-1.1-3.5-3.6-2.8-6.1
		L685.7,137.8z"/>
</g>
<g id="BOXING">
	<path id="OBOXING" fill="#1E1E1E" d="M1403,91.4c0,39.4-24,60.3-53.2,60.3c-30.3,0-51.5-23.5-51.5-58.1c0-36.4,22.6-60.2,53.2-60.2
		C1382.8,33.4,1403,57.4,1403,91.4z M1314.1,93.3c0,24.5,13.3,46.4,36.5,46.4c23.5,0,36.7-21.6,36.7-47.6
		c0-22.8-11.9-46.6-36.5-46.6C1326.3,45.5,1314.1,68.1,1314.1,93.3z"/>
	<g id="XINGBOXING">
		<path fill="#1E1E1E" d="M1499.5,40.6v104.1c0,2.9-2.4,5.2-5.2,5.2h-4.3c-2.9,0-5.2-2.4-5.2-5.2V40.6c0-2.9,2.4-5.2,5.2-5.2h4.3
			C1497.1,35.3,1499.5,37.7,1499.5,40.6z"/>
		<path fill="#1E1E1E" d="M1525.3,144.8V40.5c0-2.8,2.3-5.1,5.1-5.1h8.2c1.8,0,3.4,0.9,4.3,2.4l35.2,55.6
			c8.5,13.4,15.1,25.5,20.6,37.2l0.3-0.2c-1.4-15.3-1.7-29.2-1.7-47.1V40.5c0-2.8,2.3-5.1,5.1-5.1h3.7c2.8,0,5.1,2.3,5.1,5.1v104.3
			c0,2.8-2.3,5.1-5.1,5.1h-7c-1.8,0-3.4-0.9-4.4-2.4L1560,91.8c-8-12.8-15.6-25.8-21.4-38.2l-0.5,0.2c0.8,14.4,1.2,28.2,1.2,47.3
			v43.8c0,2.8-2.3,5.1-5.1,5.1h-3.7C1527.6,149.9,1525.3,147.6,1525.3,144.8z"/>
		<path fill="#1E1E1E" d="M1724.4,141.3c0,2.1-1.4,4-3.4,4.7c-7.2,2.3-18.6,5.1-31.8,5.1c-17.3,0-31.6-4.4-42.8-15.1
			c-9.9-9.5-16-24.8-16-42.7c0.2-34.2,23.6-59.2,62-59.2c10.1,0,18.5,1.7,24.2,3.5c2.5,0.8,3.9,3.5,3.1,6l-0.8,2.7
			c-0.8,2.7-3.7,4.1-6.3,3.2c-5.3-1.8-11.8-3.1-20.5-3.1c-27.9,0-46.1,17.3-46.1,46.1c0,29.1,17.5,46.2,44.2,46.2
			c7,0,12.4-0.7,16.1-1.7c2.1-0.6,3.6-2.5,3.6-4.7v-25.9c0-2.7-2.2-4.9-4.9-4.9h-13.5c-2.7,0-4.9-2.2-4.9-4.9v-2.1
			c0-2.7,2.2-4.9,4.9-4.9h27.9c2.7,0,4.9,2.2,4.9,4.9V141.3z"/>
		<path fill="#1E1E1E" d="M1433.1,89l30-48.1c1.6-2.6-0.2-5.9-3.3-5.9h-7.9c-1.4,0-2.6,0.7-3.3,1.9L1434,62.2
			c-4.2,7.3-7.1,12.8-10.4,19.8h-0.5c-3.1-7-6.3-12.3-10.5-19.8l-14-25.3c-0.7-1.2-2-2-3.4-2h-0.3c-3.7,0-5.2,4.6-2.3,6.9
			c13.3,10.4,21,28,21,49.2l0.4,0.8l-0.4,0.8c-0.3,23.6-9,40.5-22.3,50.5c-2.9,2.2-1.3,6.8,2.4,6.8h0.1c1.4,0,2.7-0.8,3.4-2
			l12.7-23.2c6-10,9.2-15.8,12.4-22.8h0.3c3.6,7,7.3,13,13.3,22.6l13.5,23.4c0.7,1.2,2,1.9,3.3,1.9h8.2c3,0,4.8-3.3,3.3-5.8L1433,93
			C1432.3,91.7,1432.3,90.2,1433.1,89z"/>
	</g>
	<path id="BBOXING" fill="#1E1E1E" d="M1290.3,92.6c0-0.2,0.2-0.4,0.2-0.6c-2.9-1.6-6.5-2.8-8.5-3.5v-0.3c1.4-0.6,2.9-1.3,4.3-2.1
		c2.8-1.5,4.8-4.3,5.4-7.5c1.2-6.9,3.3-13.2,6.2-18.8c1.7-3.2,1.6-7.1-0.2-10.2c-1.6-2.7-3.7-5-6.2-6.9c-7.1-5.8-16.7-8.3-31.5-8.3
		c-6.1,0-12.2,0.3-17.5,0.9c-5.4,0.6-9.6,5.1-9.6,10.6v93.9c0,5.6,4.4,10.3,10,10.6c3.7,0.2,8,0.4,12.9,0.4
		c18.7,0,31.6-3.4,39.6-10.7c0.7-0.6,1.3-1.3,1.9-2c3-3.4,3.3-8.3,1.1-12.2C1293.3,116.9,1290.3,105.5,1290.3,92.6z M1248,56.5
		c0-5.8,4.6-10.5,10.4-10.7c0.8,0,1.7,0,2.6,0c15,0,25.1,5.4,25.1,18.8c0,11-9.2,19.3-24.9,19.3h-2.5c-5.9,0-10.7-4.8-10.7-10.7
		V56.5z M1260.3,139.4c-0.6,0-1.2,0-1.7,0c-5.8,0-10.5-4.8-10.5-10.7v-23c0-5.9,4.8-10.7,10.7-10.7h1.3c16.2,0,29.6,6.5,29.6,22.1
		C1289.6,133.8,1275.6,139.4,1260.3,139.4z"/>
</g>
</svg>
